<?xml version="1.0" standalone="no"?>
<!DOCTYPE svg PUBLIC "-//W3C//DTD SVG 20010904//EN"
 "http://www.w3.org/TR/2001/REC-SVG-20010904/DTD/svg10.dtd">
<svg version="1.0" xmlns="http://www.w3.org/2000/svg"
 width="1006.000000pt" height="492.000000pt" viewBox="0 0 1006.000000 492.000000"
 preserveAspectRatio="xMidYMid meet">

<g transform="translate(0.000000,492.000000) scale(0.100000,-0.100000)"
fill="#000000" stroke="none">
<path d="M4807 4474 c-4 -4 -7 -24 -7 -44 0 -20 -4 -40 -9 -45 -5 -6 -12 -46
-15 -90 -5 -74 -9 -116 -35 -345 -6 -47 -15 -128 -21 -180 -6 -52 -15 -131
-20 -175 -27 -231 -31 -276 -36 -345 -2 -41 -9 -84 -15 -95 -6 -12 -9 -48 -7
-80 l3 -60 185 0 185 0 7 130 c8 126 17 383 37 980 6 160 11 304 13 320 l3 30
-131 3 c-71 1 -133 -1 -137 -4z"/>
<path d="M5298 4473 c-6 -12 14 -679 37 -1263 4 -96 12 -181 17 -187 8 -10 58
-13 190 -13 l180 0 -6 83 c-6 83 -15 174 -36 347 -19 160 -30 262 -35 340 -4
41 -10 84 -15 95 -5 11 -12 54 -14 95 -3 41 -10 116 -15 165 -6 50 -15 131
-20 180 -5 50 -12 107 -16 128 l-8 37 -128 0 c-70 0 -129 -3 -131 -7z"/>
<path d="M4210 3220 c-8 -5 -49 -10 -91 -10 -87 0 -76 12 -120 -130 -52 -172
-101 -317 -113 -340 -8 -14 -15 -28 -15 -33 0 -4 -8 -24 -17 -45 -8 -20 -25
-62 -36 -92 -11 -30 -37 -91 -58 -135 -20 -44 -48 -105 -60 -135 -13 -30 -27
-59 -31 -65 -4 -5 -28 -50 -54 -100 -76 -144 -107 -199 -121 -216 -8 -8 -14
-18 -14 -22 0 -9 -122 -210 -148 -242 -4 -5 -17 -26 -28 -46 l-21 -35 61 4
c34 3 69 8 78 13 9 5 37 9 61 9 25 0 62 6 84 14 21 7 58 14 81 14 23 0 45 3
50 5 4 3 34 8 66 12 72 7 102 26 117 73 6 20 20 53 30 72 25 49 47 101 119
285 98 249 107 274 135 369 14 48 31 100 37 115 6 14 12 32 14 39 1 8 6 21 10
30 4 9 8 22 9 27 3 22 17 73 39 145 13 41 29 100 36 130 7 30 16 60 20 65 4 6
10 26 13 45 3 19 11 58 17 85 23 103 25 100 -60 103 -41 1 -82 -2 -90 -8z"/>
<path d="M5996 3221 c-3 -5 -2 -20 3 -33 5 -13 14 -48 20 -78 13 -62 28 -120
42 -166 5 -17 9 -40 9 -52 0 -11 5 -24 10 -27 6 -3 10 -17 10 -30 0 -13 4 -34
9 -47 5 -13 15 -43 21 -68 7 -25 25 -83 40 -130 15 -47 37 -116 49 -155 12
-38 26 -79 31 -90 10 -24 90 -236 94 -250 2 -5 8 -21 13 -35 6 -14 31 -74 56
-135 95 -233 107 -253 154 -271 23 -9 54 -14 68 -12 14 3 45 -1 67 -9 23 -8
50 -12 61 -9 10 2 33 -2 52 -10 18 -7 48 -13 67 -12 18 0 58 -5 88 -11 30 -7
73 -11 94 -9 l39 3 -25 30 c-60 73 -247 391 -339 577 -89 179 -127 263 -189
413 -46 114 -47 116 -60 155 -13 38 -22 62 -37 100 -6 14 -21 59 -33 100 -12
41 -26 84 -30 95 -4 11 -13 40 -20 65 -25 92 -20 88 -112 94 -227 16 -246 17
-252 7z"/>
<path d="M4587 2604 c-4 -4 -7 -20 -7 -35 0 -15 -4 -31 -10 -34 -5 -3 -10 -26
-10 -50 0 -24 -4 -46 -9 -49 -5 -3 -12 -25 -15 -48 -16 -104 -19 -118 -27
-124 -5 -3 -9 -18 -9 -34 0 -16 -4 -39 -9 -52 -5 -13 -14 -43 -21 -68 -21 -77
-32 -114 -40 -135 -4 -11 -17 -51 -29 -90 -26 -82 -59 -173 -72 -197 -5 -10
-9 -23 -9 -28 0 -6 -9 -30 -20 -52 -11 -23 -20 -45 -20 -50 0 -4 -13 -37 -30
-73 -16 -36 -30 -68 -30 -72 0 -13 -168 -348 -217 -433 -27 -47 -52 -93 -56
-102 -6 -17 20 -18 452 -18 l459 0 6 57 c16 148 62 624 96 993 6 63 15 160 20
215 22 221 31 324 33 400 l2 80 -211 3 c-115 1 -213 -1 -217 -4z"/>
<path d="M5383 2595 c-8 -22 4 -189 37 -525 13 -126 29 -301 39 -425 5 -55 11
-109 14 -120 4 -11 9 -58 12 -105 3 -47 10 -128 15 -180 5 -52 13 -147 19
-210 5 -63 12 -127 16 -142 l7 -28 442 -2 c242 -2 447 -1 454 1 18 5 15 35 -8
64 -11 14 -20 27 -20 30 0 3 -16 34 -36 69 -68 118 -136 258 -214 438 -18 41
-40 93 -50 115 -10 22 -25 65 -35 95 -10 30 -21 60 -25 65 -14 19 -127 379
-151 480 -6 22 -14 58 -20 80 -16 65 -30 128 -35 165 -3 19 -9 44 -14 55 -5
11 -11 36 -12 55 l-3 35 -213 3 c-186 2 -213 0 -219 -13z"/>
<path d="M3706 1243 c-4 -4 -51 -11 -104 -15 -190 -16 -460 -44 -532 -55 -51
-8 -107 -35 -243 -115 -26 -15 -51 -28 -55 -28 -4 0 -18 -9 -32 -20 -14 -11
-32 -20 -42 -20 -9 0 -18 -3 -20 -7 -4 -10 -212 -113 -227 -113 -6 0 -11 -3
-11 -8 0 -4 -15 -13 -32 -21 -18 -7 -45 -18 -60 -25 -16 -6 -28 -14 -28 -18 0
-5 -9 -8 -20 -8 -11 0 -20 -4 -20 -8 0 -4 -17 -14 -37 -21 -21 -8 -56 -22 -77
-32 -22 -11 -46 -19 -53 -19 -7 0 -13 -4 -13 -10 0 -5 -7 -10 -15 -10 -8 0
-23 -4 -33 -9 -9 -5 -28 -13 -42 -19 -14 -5 -47 -20 -75 -32 -27 -12 -61 -27
-75 -32 -14 -6 -33 -14 -42 -19 -10 -5 -27 -9 -38 -9 -11 0 -20 -4 -20 -8 0
-4 -21 -14 -48 -21 -26 -8 -54 -18 -62 -22 -8 -4 -42 -17 -75 -29 -33 -12 -68
-26 -77 -31 -10 -5 -27 -9 -37 -9 -11 0 -23 -5 -26 -10 -3 -6 -17 -10 -30 -10
-13 0 -27 -4 -30 -10 -3 -5 -17 -10 -30 -10 -13 0 -27 -5 -30 -10 -3 -6 -15
-10 -26 -10 -10 0 -27 -4 -37 -9 -9 -5 -51 -19 -92 -31 -41 -12 -84 -26 -95
-30 -11 -4 -40 -13 -65 -20 -25 -7 -55 -16 -68 -21 -13 -5 -32 -9 -42 -9 -11
0 -20 -4 -20 -8 0 -15 2127 -26 4455 -25 2547 2 4205 11 4205 24 0 5 -11 9
-24 9 -14 0 -28 4 -31 10 -3 5 -16 10 -27 10 -23 0 -81 17 -110 31 -10 5 -27
9 -38 9 -11 0 -28 4 -38 9 -9 5 -102 37 -207 70 -104 34 -199 65 -210 70 -11
5 -31 13 -45 19 -14 6 -43 16 -65 23 -22 7 -44 17 -50 21 -5 4 -15 8 -22 8 -8
0 -33 9 -55 20 -23 11 -45 20 -50 20 -5 0 -30 9 -56 21 -26 12 -56 25 -67 29
-158 63 -522 234 -675 317 -36 19 -101 54 -145 77 -44 23 -91 49 -105 58 -81
51 -142 76 -220 89 -47 7 -98 12 -114 11 -16 -2 -56 1 -90 7 -92 16 -317 41
-370 41 -46 0 -46 0 -39 -27 7 -30 54 -121 85 -165 10 -14 18 -29 18 -32 0 -6
27 -45 78 -116 18 -25 69 -82 113 -127 43 -44 79 -86 79 -92 0 -13 -3686 -16
-3694 -3 -2 4 29 43 70 87 41 44 77 87 80 97 3 10 9 18 14 18 28 0 216 332
202 357 -5 7 -11 10 -16 6z"/>
</g>
</svg>
